<svg width="1600" height="900" viewBox="0 0 1600 900" fill="none" xmlns="http://www.w3.org/2000/svg">
  <defs>
    <linearGradient id="bg" x1="120" y1="80" x2="1480" y2="820" gradientUnits="userSpaceOnUse">
      <stop stop-color="#111827"/>
      <stop offset="0.48" stop-color="#1D4ED8"/>
      <stop offset="1" stop-color="#7C3AED"/>
    </linearGradient>
  </defs>
  <rect width="1600" height="900" rx="40" fill="url(#bg)"/>
  <rect x="110" y="90" width="1380" height="720" rx="28" fill="#F8FAFC"/>
  <rect x="110" y="90" width="1380" height="64" rx="28" fill="#0F172A"/>
  <rect x="140" y="200" width="270" height="550" rx="24" fill="#0F172A"/>
  <rect x="178" y="246" width="150" height="18" rx="9" fill="#F8FAFC" fill-opacity="0.9"/>
  <rect x="178" y="296" width="180" height="14" rx="7" fill="#CBD5E1" fill-opacity="0.5"/>
  <rect x="178" y="350" width="190" height="40" rx="14" fill="#22C55E" fill-opacity="0.28"/>
  <rect x="178" y="406" width="190" height="40" rx="14" fill="#3B82F6" fill-opacity="0.22"/>
  <rect x="178" y="462" width="190" height="40" rx="14" fill="#A78BFA" fill-opacity="0.18"/>
  <rect x="450" y="200" width="990" height="130" rx="24" fill="#E2E8F0"/>
  <rect x="490" y="240" width="260" height="22" rx="11" fill="#0F172A" fill-opacity="0.92"/>
  <rect x="490" y="276" width="370" height="14" rx="7" fill="#334155" fill-opacity="0.5"/>
  <rect x="450" y="360" width="620" height="350" rx="24" fill="#EFF6FF"/>
  <rect x="490" y="402" width="230" height="18" rx="9" fill="#1E3A8A" fill-opacity="0.88"/>
  <rect x="490" y="442" width="520" height="14" rx="7" fill="#64748B" fill-opacity="0.45"/>
  <rect x="490" y="478" width="480" height="14" rx="7" fill="#64748B" fill-opacity="0.28"/>
  <rect x="490" y="532" width="520" height="120" rx="18" fill="#FFFFFF"/>
  <rect x="1095" y="360" width="345" height="350" rx="24" fill="#F8FAFC"/>
  <rect x="1130" y="404" width="160" height="18" rx="9" fill="#0F172A" fill-opacity="0.9"/>
  <rect x="1130" y="446" width="250" height="14" rx="7" fill="#64748B" fill-opacity="0.4"/>
  <rect x="1130" y="486" width="270" height="92" rx="18" fill="#DDD6FE"/>
  <rect x="1130" y="600" width="190" height="44" rx="16" fill="#16A34A"/>
  <text x="800" y="790" text-anchor="middle" fill="#E2E8F0" font-family="Segoe UI, Arial, sans-serif" font-size="42" font-weight="700">Replace with injection-tool admin screenshot</text>
</svg>